# xmcd CD database file
#
# Track frame offsets:
#	150
#	20822
#	36806
#	56346
#	75051
#	93666
#	111930
#	126326
#	144130
#	163135
#	178660
#	196563
#	214277
#	230287
#
# Disc length: 3300 seconds
#
# Revision: 0
# Processed by: cddbd v1.5.2PL0 Copyright (c) Steve Scherf et al.
# Submitted via: CDex 1.51
#
DISCID=b40ce20e
DTITLE=Die Amigos - Die schönsten Liebeslieder CD 1
DYEAR=2007
DGENRE=Volkstümliche Schlager
TTITLE0=Ich schenke nur Dir meine Liebe
TTITLE1=Zwei Herzen und ein Schlag
TTITLE2=Maria
TTITLE3=Ohne Dich bin ich verloren
TTITLE4=Das Korallenriff von San Fernado
TTITLE5=Sylvia
TTITLE6=Herz an Herz
TTITLE7=Liebesinsel im Meer
TTITLE8=Wenn es Nacht wird auf Hawaii
TTITLE9=Wenn Du von Liebe traeumst
TTITLE10=Am Ende der Einsamkeit
TTITLE11=Carmencita aus Spanien
TTITLE12=Schmetterlinge weinen nicht
TTITLE13=Auf wiedersehen
EXTD=YEAR: 2007
EXTT0=
EXTT1=
EXTT2=
EXTT3=
EXTT4=
EXTT5=
EXTT6=
EXTT7=
EXTT8=
EXTT9=
EXTT10=
EXTT11=
EXTT12=
EXTT13=
PLAYORDER=
